<?xml version="1.0" encoding="UTF-8" standalone="no"?>
<svg
   xmlns:dc="http://purl.org/dc/elements/1.1/"
   xmlns:cc="http://creativecommons.org/ns#"
   xmlns:rdf="http://www.w3.org/1999/02/22-rdf-syntax-ns#"
   xmlns:svg="http://www.w3.org/2000/svg"
   xmlns="http://www.w3.org/2000/svg"
   viewBox="0 0 793.33331 1122.6667"
   height="1122.6667"
   width="793.33331"
   xml:space="preserve"
   id="svg2"
   version="1.1"><metadata
     id="metadata8"><rdf:RDF><cc:Work
         rdf:about=""><dc:format>image/svg+xml</dc:format><dc:type
           rdf:resource="http://purl.org/dc/dcmitype/StillImage" /></cc:Work></rdf:RDF></metadata><defs
     id="defs6" /><g
     transform="matrix(1.3333333,0,0,-1.3333333,0,1122.6667)"
     id="g10"><g
       transform="scale(0.1)"
       id="g12"><path
         id="path14"
         style="fill:#ffffff;fill-opacity:1;fill-rule:nonzero;stroke:none"
         d="M 1440,1440 H 4240 V 5400 H 1440 Z" /><path
         id="path16"
         style="fill:none;stroke:#000000;stroke-width:15;stroke-linecap:butt;stroke-linejoin:round;stroke-miterlimit:10;stroke-dasharray:none;stroke-opacity:1"
         d="M 1440,1440 H 4240 V 5400 H 1440 Z" /><path
         id="path18"
         style="fill:none;stroke:#000000;stroke-width:15;stroke-linecap:butt;stroke-linejoin:round;stroke-miterlimit:10;stroke-dasharray:none;stroke-opacity:1"
         d="m 1440,1440 v 0" /><path
         id="path20"
         style="fill:none;stroke:#000000;stroke-width:15;stroke-linecap:butt;stroke-linejoin:round;stroke-miterlimit:10;stroke-dasharray:none;stroke-opacity:1"
         d="m 4240,1440 v 0" /><path
         id="path22"
         style="fill:none;stroke:#000000;stroke-width:15;stroke-linecap:butt;stroke-linejoin:round;stroke-miterlimit:10;stroke-dasharray:none;stroke-opacity:1"
         d="m 1440,5400 v 0" /><path
         id="path24"
         style="fill:none;stroke:#000000;stroke-width:15;stroke-linecap:butt;stroke-linejoin:round;stroke-miterlimit:10;stroke-dasharray:none;stroke-opacity:1"
         d="m 4240,5400 v 0" /><path
         id="path26"
         style="fill:none;stroke:#000000;stroke-width:15;stroke-linecap:butt;stroke-linejoin:round;stroke-miterlimit:10;stroke-dasharray:none;stroke-opacity:1"
         d="m 1440,1440 v 0" /><path
         id="path28"
         style="fill:none;stroke:#000000;stroke-width:15;stroke-linecap:butt;stroke-linejoin:round;stroke-miterlimit:10;stroke-dasharray:none;stroke-opacity:1"
         d="m 1440,5400 v 0" /><path
         id="path30"
         style="fill:none;stroke:#000000;stroke-width:15;stroke-linecap:butt;stroke-linejoin:round;stroke-miterlimit:10;stroke-dasharray:none;stroke-opacity:1"
         d="m 4240,1440 v 0" /><path
         id="path32"
         style="fill:none;stroke:#000000;stroke-width:15;stroke-linecap:butt;stroke-linejoin:round;stroke-miterlimit:10;stroke-dasharray:none;stroke-opacity:1"
         d="m 4240,5400 v 0" /><path
         id="path34"
         style="fill:none;stroke:#660000;stroke-width:15;stroke-linecap:butt;stroke-linejoin:round;stroke-miterlimit:10;stroke-dasharray:none;stroke-opacity:1"
         d="m 2196,2825 -28,1 h -3 l -25,3 -28,2 -28,3 -28,2 -28,2 -28,2 -28,1 -28,1 h -56 l -28,-1 -28,-1 -28,-1 -28,-2 -28,-2 -28,-2 -28,-2 -28,-3 -17,-2 -11,-1 -28,-1 -14,2 -14,4 -28,29 -2,7 2,7 7,32 14,40 7,16 9,23 15,40 4,12 10,28 12,39 6,22 5,18 10,39 7,40 6,40 v 1 l 5,38 4,40 2,39 1,40 -1,40 -2,39 -4,40 -5,38 v 1 l -6,40 -7,40 -10,39 -5,18 -6,22 -12,39 -10,28 -4,12 -14,40 -10,29 -4,10 -14,40 -10,35 -2,4 2,7 28,29 14,4 14,2 28,-1 11,-1 17,-2 28,-3 28,-2 28,-2 28,-2 28,-2 28,-1 28,-1 28,-1 h 56 l 28,1 28,1 28,2 28,2 28,2 28,3 28,2 25,3 h 3 l 28,1 17,-1 11,-2 28,-13 12,-25 -8,-39 -4,-9 -12,-31 -15,-39 -1,-3 -15,-37 -13,-40 v 0 l -13,-39 -11,-40 -4,-19 -5,-20 -8,-40 -7,-40 -4,-39 -3,-40 -1,-28 -1,-11 v -80 l 1,-11 1,-28 3,-40 4,-39 7,-40 8,-40 5,-20 4,-19 11,-40 13,-39 v 0 l 13,-40 15,-37 1,-3 13,-39 14,-39 v -1 l 10,-39 -10,-25 -28,-13 -11,-2 -17,-1" /><path
         id="path36"
         style="fill:none;stroke:#660000;stroke-width:15;stroke-linecap:butt;stroke-linejoin:round;stroke-miterlimit:10;stroke-dasharray:none;stroke-opacity:1"
         d="m 1949,3143 18,-40 1,-39 -24,-27 -28,-11 -28,2 -28,17 -14,19 1,39 13,34 4,6 24,23 28,5 28,-20 5,-8" /><path
         id="path38"
         style="fill:none;stroke:#660000;stroke-width:15;stroke-linecap:butt;stroke-linejoin:round;stroke-miterlimit:10;stroke-dasharray:none;stroke-opacity:1"
         d="m 1944,3689 -28,-20 -28,5 -24,23 -4,6 -13,34 -1,39 14,19 28,17 28,2 28,-11 24,-27 -1,-39 -18,-40 -5,-8" /><path
         id="path40"
         style="fill:none;stroke:#660000;stroke-width:15;stroke-linecap:butt;stroke-linejoin:round;stroke-miterlimit:10;stroke-dasharray:none;stroke-opacity:1"
         d="m 2485,4172 19,-19 28,-5 h 28 l 28,2 28,1 28,2 28,2 28,2 28,2 28,1 28,1 28,1 h 56 l 28,-1 28,-1 28,-1 28,-2 28,-2 28,-2 28,-2 28,-1 28,-2 h 28 l 28,5 20,19 -7,40 -13,38 v 2 l -15,39 -13,40 v 0 l -15,39 -12,40 -1,3 -11,37 -10,39 -7,37 -1,3 -7,39 -6,40 -3,40 -3,39 -1,40 v 39 l 2,40 3,40 4,39 6,40 6,29 2,10 8,40 10,40 8,23 5,16 13,40 10,27 5,12 15,40 8,21 8,19 12,39 -7,40 -13,6 -28,4 -28,2 -28,-1 -28,-2 -28,-2 -28,-2 -28,-2 -28,-1 -28,-2 h -28 l -28,-1 h -56 l -28,1 h -28 l -28,2 -28,1 -28,2 -28,2 -28,2 -28,2 -28,1 -28,-2 -28,-4 -13,-6 -4,-40 12,-39 5,-14 9,-26 14,-40 5,-12 10,-27 14,-40 4,-16 8,-23 10,-40 8,-40 2,-10 6,-29 6,-40 4,-39 3,-40 2,-40 v -39 l -1,-40 -2,-39 -4,-40 -6,-40 -7,-39 -1,-3 -7,-37 -9,-39 -12,-37 -1,-3 -12,-40 -15,-39 v 0 l -15,-40 -13,-33 -3,-6 -12,-40 -4,-40" /><path
         id="path42"
         style="fill:none;stroke:#660000;stroke-width:15;stroke-linecap:butt;stroke-linejoin:round;stroke-miterlimit:10;stroke-dasharray:none;stroke-opacity:1"
         d="m 2784,4370 v 0 l 28,-17 28,-5 28,5 28,17 v 0 l 7,40 -7,25 -5,15 -23,30 -19,9 -9,4 -9,-4 -19,-9 -22,-30 -6,-15 -6,-25 6,-40" /><path
         id="path44"
         style="fill:none;stroke:#660000;stroke-width:15;stroke-linecap:butt;stroke-linejoin:round;stroke-miterlimit:10;stroke-dasharray:none;stroke-opacity:1"
         d="m 2868,4999 -28,-11 -28,11 -4,5 -24,37 -1,3 -6,39 7,19 15,21 13,6 28,3 28,-3 13,-6 15,-21 7,-19 -6,-39 -1,-3 -24,-37 -4,-5" /><path
         id="path46"
         style="fill:none;stroke:#660000;stroke-width:15;stroke-linecap:butt;stroke-linejoin:round;stroke-miterlimit:10;stroke-dasharray:none;stroke-opacity:1"
         d="m 3468,4014 -12,-2 -28,-13 -10,-25 10,-39 v -1 l 14,-39 13,-39 1,-3 15,-37 13,-40 v 0 l 13,-39 11,-40 4,-19 5,-20 9,-40 6,-40 4,-39 3,-40 1,-28 1,-11 1,-40 -1,-40 -1,-11 -1,-28 -3,-40 -4,-39 -6,-40 -9,-40 -5,-20 -4,-19 -11,-40 -13,-39 v 0 l -13,-40 -15,-37 -1,-3 -15,-39 -12,-31 -4,-9 -8,-39 12,-25 28,-13 12,-2 16,-1 28,1 h 3 l 25,3 28,2 28,3 28,2 28,2 28,2 28,1 28,1 h 56 l 28,-1 28,-1 28,-1 28,-2 28,-2 28,-2 28,-2 28,-3 17,-2 11,-1 28,-1 14,2 14,4 28,29 2,7 -2,4 -10,35 -14,40 -4,10 -10,29 -14,40 -4,12 -10,28 -12,39 -6,22 -5,18 -10,39 -7,40 -6,40 v 1 l -5,38 -4,40 -2,39 -1,40 1,40 2,39 4,40 5,38 v 1 l 6,40 7,40 10,39 5,18 6,22 12,39 10,28 4,12 15,40 9,23 7,16 14,40 7,32 2,7 -2,7 -28,29 -14,4 -14,2 -28,-1 -11,-1 -17,-2 -28,-3 -28,-2 -28,-2 -28,-2 -28,-2 -28,-1 -28,-1 -28,-1 h -56 l -28,1 -28,1 -28,2 -28,2 -28,2 -28,3 -28,2 -25,3 h -3 l -28,1 -16,-1" /><path
         id="path48"
         style="fill:none;stroke:#660000;stroke-width:15;stroke-linecap:butt;stroke-linejoin:round;stroke-miterlimit:10;stroke-dasharray:none;stroke-opacity:1"
         d="m 3731,3697 5,-8 28,-20 28,5 24,23 4,6 13,34 1,39 -14,19 -28,17 -28,2 -28,-11 -24,-27 1,-39 18,-40" /><path
         id="path50"
         style="fill:none;stroke:#660000;stroke-width:15;stroke-linecap:butt;stroke-linejoin:round;stroke-miterlimit:10;stroke-dasharray:none;stroke-opacity:1"
         d="m 3731,3143 -18,-40 -1,-39 24,-27 28,-11 28,2 28,17 14,19 -1,39 -13,34 -4,6 -24,23 -28,5 -28,-20 -5,-8" /><path
         id="path52"
         style="fill:none;stroke:#660000;stroke-width:15;stroke-linecap:butt;stroke-linejoin:round;stroke-miterlimit:10;stroke-dasharray:none;stroke-opacity:1"
         d="m 3196,2668 -4,-40 -13,-40 -3,-6 -13,-33 -15,-40 v 0 l -15,-39 -12,-40 -1,-3 -11,-37 -10,-39 -7,-37 -1,-3 -7,-39 -6,-40 -3,-40 -3,-39 -1,-40 v -39 l 2,-40 3,-40 4,-39 6,-40 6,-29 2,-10 8,-40 10,-40 8,-23 5,-16 13,-40 10,-27 5,-12 14,-40 9,-26 5,-14 12,-39 -4,-40 -13,-6 -28,-4 -28,-2 -28,1 -28,2 -28,2 -28,2 -28,2 -28,1 -28,2 h -28 l -28,1 h -56 l -28,-1 h -28 l -28,-2 -28,-1 -28,-2 -28,-2 -28,-2 -28,-2 -28,-1 -28,2 -28,4 -13,6 -7,40 12,39 8,19 8,21 15,40 5,12 10,27 14,40 4,16 8,23 10,40 8,40 2,10 6,29 6,40 4,39 3,40 2,40 v 39 l -1,40 -2,39 -4,40 -6,40 -7,39 -1,3 -7,37 -9,39 -12,37 -1,3 -12,40 -15,39 v 0 l -13,40 -15,39 v 2 l -13,38 -6,40 19,19 28,5 h 28 l 28,-2 28,-1 28,-2 28,-2 28,-2 28,-2 28,-1 28,-1 28,-1 h 56 l 28,1 28,1 28,1 28,2 28,2 28,2 28,2 28,1 28,2 h 28 l 28,-5 20,-19" /><path
         id="path54"
         style="fill:none;stroke:#660000;stroke-width:15;stroke-linecap:butt;stroke-linejoin:round;stroke-miterlimit:10;stroke-dasharray:none;stroke-opacity:1"
         d="m 2896,2470 7,-40 -7,-25 -6,-15 -22,-30 -19,-9 -9,-4 -9,4 -19,9 -22,30 -6,15 -6,25 6,40 v 0 l 28,17 28,5 28,-5 28,-17 v 0" /><path
         id="path56"
         style="fill:none;stroke:#660000;stroke-width:15;stroke-linecap:butt;stroke-linejoin:round;stroke-miterlimit:10;stroke-dasharray:none;stroke-opacity:1"
         d="m 2808,1836 -24,-37 -1,-3 -6,-39 7,-19 15,-21 13,-6 28,-3 28,3 13,6 15,21 7,19 -6,39 -1,3 -24,37 -4,5 -28,11 -28,-11 -4,-5" /><path
         id="path58"
         style="fill:none;stroke:#000000;stroke-width:15;stroke-linecap:round;stroke-linejoin:round;stroke-miterlimit:10;stroke-dasharray:144, 36;stroke-dashoffset:0;stroke-opacity:1"
         d="m 2642,1440 2,1 28,6 28,5 28,4 28,3 28,2 28,1 28,1 28,-1 28,-1 28,-2 28,-3 28,-4 28,-5 28,-6 2,-1" /><path
         id="path60"
         style="fill:none;stroke:#000000;stroke-width:15;stroke-linecap:round;stroke-linejoin:round;stroke-miterlimit:10;stroke-dasharray:144, 36;stroke-dashoffset:0;stroke-opacity:1"
         d="m 3576,1440 -8,1 -28,6 -28,8 -28,9 -28,13 -6,3 -22,9 -28,14 -23,16 -5,3 -28,20 -18,17 -10,9 -28,30 v 0 l -28,35 -4,5 -24,37 -2,3 -22,39 -4,9 -15,31 -13,35 -2,4 -14,40 -10,40 -2,10 -7,29 -7,40 -5,39 -3,40 -2,40 v 39 l 1,40 3,39 4,40 6,40 9,39 1,3 9,37 12,39 7,19 8,21 18,40 2,4 18,35 10,17 15,23 13,19 16,20 12,15 25,25 3,4 28,26 14,10 14,11 28,17 23,11 5,3 28,15 28,11 28,8 12,3 16,5 28,8 28,6 28,5 28,4 28,3 28,2 28,1 h 84 l 28,-2 28,-2 28,-3 28,-4 28,-6 28,-6 28,-9 7,-2 21,-6 28,-9 28,-12 24,-13 4,-2 28,-14 28,-20 4,-3 24,-18 22,-22 6,-5 V 1440" /><path
         id="path62"
         style="fill:none;stroke:#000000;stroke-width:15;stroke-linecap:round;stroke-linejoin:round;stroke-miterlimit:10;stroke-dasharray:144, 36;stroke-dashoffset:0;stroke-opacity:1"
         d="m 4240,2560 -28,28 v 0 l -28,27 -17,13 -11,9 -28,19 -23,12 -5,3 -28,15 -28,12 -28,9 h -2 l -26,10 -28,8 -28,6 -28,5 -28,4 -28,2 -28,2 -28,1 h -28 l -28,-1 -28,-1 -28,-2 -28,-4 -28,-4 -28,-6 -28,-7 -28,-10 -7,-3 -21,-6 -28,-11 -28,-14 -14,-8 -14,-7 -28,-17 -20,-16 -8,-6 -28,-24 -10,-10 -18,-17 -18,-22 -10,-12 -20,-28 -8,-12 -17,-27 -11,-22 -9,-18 -17,-40 -2,-6 -12,-33 -11,-40 -5,-22 -4,-17 -8,-40 -5,-40 -3,-39 -1,-40 v -39 l 2,-40 4,-40 5,-39 9,-40 1,-4 8,-35 12,-40 8,-20 7,-20 19,-39 2,-5 19,-35 9,-14 17,-25 11,-15 21,-25 7,-8 28,-28 5,-4 23,-21 27,-18 1,-1 28,-20 28,-14 12,-5 16,-9 28,-12 28,-9 28,-7 10,-2 18,-6 28,-6 28,-6 28,-3 28,-3 28,-2 h 56 l 28,1 28,2 28,3 28,4 28,6 28,7 9,3 19,4 28,8 28,10 28,13 7,4 21,9 28,16 20,15 8,5 28,21 15,13 13,12 26,28 2,3" /><path
         id="path64"
         style="fill:none;stroke:#000000;stroke-width:15;stroke-linecap:round;stroke-linejoin:round;stroke-miterlimit:10;stroke-dasharray:144, 36;stroke-dashoffset:0;stroke-opacity:1"
         d="m 4240,1576 -19,-17 -9,-8 -28,-23 -14,-9 -14,-10 -28,-16 -28,-12 -4,-1 -24,-12 -28,-10 -28,-8 -28,-7 -17,-3 h 269" /><path
         id="path66"
         style="fill:none;stroke:#000000;stroke-width:15;stroke-linecap:round;stroke-linejoin:round;stroke-miterlimit:10;stroke-dasharray:144, 36;stroke-dashoffset:0;stroke-opacity:1"
         d="m 4240,2897 -7,8 -21,23 -13,17 -15,20 -13,19 -15,26 -8,14 -19,40 -1,2 -16,37 -12,35 -1,5 -13,39 -9,40 -5,30 -2,10 -6,39 -4,40 -2,39 -1,40 1,40 2,39 4,40 6,39 2,10 5,30 9,40 13,39 1,5 12,35 16,37 1,2 19,40 8,14 15,26 13,19 15,20 13,17 21,23 7,8" /><path
         id="path68"
         style="fill:none;stroke:#000000;stroke-width:15;stroke-linecap:round;stroke-linejoin:round;stroke-miterlimit:10;stroke-dasharray:144, 36;stroke-dashoffset:0;stroke-opacity:1"
         d="m 4240,3880 -19,-24 -9,-11 -19,-29 -9,-14 -15,-26 -13,-27 -6,-12 -16,-40 -6,-20 -7,-19 -11,-40 -7,-40 -3,-18 -4,-21 -4,-40 -3,-39 -1,-40 1,-40 3,-39 4,-40 4,-21 3,-18 7,-40 11,-40 7,-19 6,-20 16,-40 6,-12 13,-27 15,-26 9,-14 19,-29 9,-11 19,-24" /><path
         id="path70"
         style="fill:none;stroke:#000000;stroke-width:15;stroke-linecap:round;stroke-linejoin:round;stroke-miterlimit:10;stroke-dasharray:144, 36;stroke-dashoffset:0;stroke-opacity:1"
         d="m 4240,4217 -6,-5 -22,-22 -24,-18 -4,-3 -28,-20 -28,-14 -4,-2 -24,-13 -28,-12 -28,-9 -21,-6 -7,-2 -28,-9 -28,-6 -28,-6 -28,-4 -28,-3 -28,-2 -28,-2 h -84 l -28,1 -28,2 -28,3 -28,4 -28,5 -28,6 -28,8 -16,5 -12,3 -28,8 -28,11 -28,15 -5,3 -23,11 -28,17 -14,11 -14,10 -28,26 -3,4 -25,25 -12,15 -16,20 -13,19 -15,23 -10,17 -18,35 -2,4 -18,40 -8,21 -7,19 -12,39 -9,37 -1,3 -9,39 -6,40 -4,40 -3,39 -1,40 v 39 l 2,40 3,40 5,39 7,40 7,29 2,10 10,40 14,40 2,4 13,35 15,31 4,9 22,39 2,3 24,37 4,5 28,35 v 0 l 28,30 10,9 18,17 28,20 5,3 23,16 28,14 22,9 6,3 28,13 28,9 28,8 28,6 8,1 h 664" /><path
         id="path72"
         style="fill:none;stroke:#000000;stroke-width:15;stroke-linecap:round;stroke-linejoin:round;stroke-miterlimit:10;stroke-dasharray:144, 36;stroke-dashoffset:0;stroke-opacity:1"
         d="m 3971,5400 17,-3 28,-7 28,-8 28,-10 24,-12 4,-1 28,-12 28,-16 14,-10 14,-9 28,-23 9,-8 19,-17 v 136" /><path
         id="path74"
         style="fill:none;stroke:#000000;stroke-width:15;stroke-linecap:round;stroke-linejoin:round;stroke-miterlimit:10;stroke-dasharray:144, 36;stroke-dashoffset:0;stroke-opacity:1"
         d="m 4240,5199 -2,3 -26,28 -13,12 -15,13 -28,21 -8,5 -20,15 -28,16 -21,9 -7,4 -28,13 -28,10 -28,8 -19,4 -9,3 -28,7 -28,6 -28,4 -28,3 -28,2 -28,1 h -56 l -28,-2 -28,-3 -28,-3 -28,-6 -28,-6 -18,-6 -10,-2 -28,-7 -28,-9 -28,-12 -16,-9 -12,-5 -28,-14 -28,-20 -1,-1 -27,-18 -23,-21 -5,-4 -28,-28 -7,-8 -21,-25 -11,-15 -17,-25 -9,-14 -19,-35 -2,-5 -19,-39 -7,-20 -8,-20 -12,-40 -8,-35 -1,-4 -9,-40 -5,-39 -4,-40 -2,-40 v -39 l 1,-40 3,-39 5,-40 8,-40 4,-17 5,-22 11,-40 12,-33 2,-6 17,-40 9,-18 11,-22 17,-27 8,-12 20,-28 10,-12 18,-22 18,-17 10,-10 28,-24 8,-6 20,-16 28,-17 14,-7 14,-8 28,-14 28,-11 21,-6 7,-3 28,-10 28,-7 28,-6 28,-4 28,-4 28,-2 28,-1 28,-1 h 28 l 28,1 28,2 28,2 28,4 28,5 28,6 28,8 26,10 h 2 l 28,9 28,12 28,15 5,3 23,12 28,19 11,9 17,13 28,27 v 0 l 28,28" /><path
         id="path76"
         style="fill:none;stroke:#000000;stroke-width:15;stroke-linecap:round;stroke-linejoin:round;stroke-miterlimit:10;stroke-dasharray:144, 36;stroke-dashoffset:0;stroke-opacity:1"
         d="m 3038,5400 -2,-1 -28,-6 -28,-5 -28,-4 -28,-3 -28,-2 -28,-1 -28,-1 -28,1 -28,1 -28,2 -28,3 -28,4 -28,5 -28,6 -2,1" /><path
         id="path78"
         style="fill:none;stroke:#000000;stroke-width:15;stroke-linecap:round;stroke-linejoin:round;stroke-miterlimit:10;stroke-dasharray:144, 36;stroke-dashoffset:0;stroke-opacity:1"
         d="m 2105,5400 7,-1 28,-6 28,-8 28,-9 28,-13 6,-3 22,-9 28,-14 23,-16 5,-3 28,-20 18,-17 10,-9 28,-30 v 0 l 28,-35 4,-5 24,-37 2,-3 22,-39 4,-9 15,-31 13,-35 2,-4 14,-40 10,-40 2,-10 7,-29 7,-40 5,-39 3,-40 2,-40 v -39 l -1,-40 -3,-39 -4,-40 -6,-40 -9,-39 -1,-3 -8,-37 -13,-39 -7,-19 -8,-21 -18,-40 -2,-4 -18,-35 -10,-17 -15,-23 -13,-19 -16,-20 -12,-15 -24,-25 -4,-4 -28,-26 -14,-10 -14,-11 -28,-17 -22,-11 -6,-3 -28,-15 -28,-11 -28,-8 -11,-3 -17,-5 -28,-8 -28,-6 -28,-5 -28,-4 -28,-3 -28,-2 -28,-1 h -84 l -28,2 -28,2 -28,3 -28,4 -28,6 -28,6 -28,9 -7,2 -21,6 -28,9 -28,12 -24,13 -4,2 -28,14 -28,20 -4,3 -24,18 -22,22 -6,5 v 1183" /><path
         id="path80"
         style="fill:none;stroke:#000000;stroke-width:15;stroke-linecap:round;stroke-linejoin:round;stroke-miterlimit:10;stroke-dasharray:144, 36;stroke-dashoffset:0;stroke-opacity:1"
         d="m 1440,4280 28,-28 v 0 l 28,-27 18,-13 10,-9 28,-19 23,-12 5,-3 28,-15 28,-12 28,-9 h 2 l 26,-10 28,-8 28,-6 28,-5 28,-4 28,-2 28,-2 28,-1 h 28 l 28,1 28,1 28,2 28,4 28,4 28,6 28,7 28,10 7,3 21,6 28,11 28,14 14,8 14,7 28,17 20,16 8,6 28,24 10,10 18,17 18,22 10,12 20,28 8,12 17,27 11,22 9,18 17,40 2,6 13,33 11,40 4,22 4,17 8,40 5,40 3,39 1,40 v 39 l -2,40 -4,40 -5,39 -9,40 -1,4 -8,35 -12,40 -8,20 -7,20 -19,39 -2,5 -19,35 -9,14 -17,25 -11,15 -21,25 -7,8 -28,28 -4,4 -24,21 -27,18 -1,1 -28,20 -28,14 -11,5 -17,9 -28,12 -28,9 -28,7 -10,2 -18,6 -28,6 -28,6 -28,3 -28,3 -28,2 h -56 l -28,-1 -28,-2 -28,-3 -28,-4 -28,-6 -28,-7 -9,-3 -19,-4 -28,-8 -28,-10 -28,-13 -7,-4 -21,-9 -28,-16 -20,-15 -8,-5 -28,-21 -15,-13 -13,-12 -25,-28 -3,-3" /><path
         id="path82"
         style="fill:none;stroke:#000000;stroke-width:15;stroke-linecap:round;stroke-linejoin:round;stroke-miterlimit:10;stroke-dasharray:144, 36;stroke-dashoffset:0;stroke-opacity:1"
         d="m 1440,5264 20,17 8,8 28,23 14,9 14,10 28,16 28,12 4,1 24,12 28,10 28,8 28,7 17,3 h -269" /><path
         id="path84"
         style="fill:none;stroke:#000000;stroke-width:15;stroke-linecap:round;stroke-linejoin:round;stroke-miterlimit:10;stroke-dasharray:144, 36;stroke-dashoffset:0;stroke-opacity:1"
         d="m 1440,3943 7,-8 21,-23 13,-17 15,-20 13,-19 15,-26 8,-14 19,-40 1,-2 16,-37 12,-35 2,-5 12,-39 9,-40 5,-30 2,-10 6,-39 4,-40 3,-39 v -80 l -3,-39 -4,-40 -6,-39 -2,-10 -5,-30 -9,-40 -12,-39 -2,-5 -12,-35 -16,-37 -1,-2 -19,-40 -8,-14 -15,-26 -13,-19 -15,-20 -13,-17 -21,-23 -7,-8" /><path
         id="path86"
         style="fill:none;stroke:#000000;stroke-width:15;stroke-linecap:round;stroke-linejoin:round;stroke-miterlimit:10;stroke-dasharray:144, 36;stroke-dashoffset:0;stroke-opacity:1"
         d="m 1440,2960 20,24 8,11 20,29 8,14 15,26 13,27 6,12 16,40 6,20 7,19 11,40 7,40 3,18 4,21 5,40 2,39 1,40 -1,40 -2,39 -5,40 -4,21 -3,18 -7,40 -11,40 -7,19 -6,20 -16,40 -6,12 -13,27 -15,26 -8,14 -20,29 -8,11 -20,24" /><path
         id="path88"
         style="fill:none;stroke:#000000;stroke-width:15;stroke-linecap:round;stroke-linejoin:round;stroke-miterlimit:10;stroke-dasharray:144, 36;stroke-dashoffset:0;stroke-opacity:1"
         d="m 1440,2623 6,5 22,22 24,18 4,3 28,20 28,14 4,2 24,13 28,12 28,9 21,6 7,2 28,9 28,6 28,6 28,4 28,3 28,2 28,2 h 84 l 28,-1 28,-2 28,-3 28,-4 28,-5 28,-6 28,-8 17,-5 11,-3 28,-8 28,-11 28,-15 6,-3 22,-11 28,-17 14,-11 14,-10 28,-26 4,-4 24,-25 12,-15 16,-20 13,-19 15,-23 10,-17 18,-35 2,-4 18,-40 8,-21 7,-19 13,-39 8,-37 1,-3 9,-39 6,-40 4,-40 3,-39 1,-40 v -39 l -2,-40 -3,-40 -5,-39 -7,-40 -7,-29 -2,-10 -10,-40 -14,-40 -2,-4 -13,-35 -15,-31 -4,-9 -22,-39 -2,-3 -24,-37 -4,-5 -28,-35 v 0 l -28,-30 -10,-9 -18,-17 -28,-20 -5,-3 -23,-16 -28,-14 -22,-9 -6,-3 -28,-13 -28,-9 -28,-8 -28,-6 -7,-1 h -665" /><path
         id="path90"
         style="fill:none;stroke:#000000;stroke-width:15;stroke-linecap:round;stroke-linejoin:round;stroke-miterlimit:10;stroke-dasharray:144, 36;stroke-dashoffset:0;stroke-opacity:1"
         d="m 1709,1440 -17,3 -28,7 -28,8 -28,10 -24,12 -4,1 -28,12 -28,16 -14,10 -14,9 -28,23 -8,8 -20,17 v -136" /><path
         id="path92"
         style="fill:none;stroke:#000000;stroke-width:15;stroke-linecap:round;stroke-linejoin:round;stroke-miterlimit:10;stroke-dasharray:144, 36;stroke-dashoffset:0;stroke-opacity:1"
         d="m 1440,1641 3,-3 25,-28 13,-12 15,-13 28,-21 8,-5 20,-15 28,-16 21,-9 7,-4 28,-13 28,-10 28,-8 19,-4 9,-3 28,-7 28,-6 28,-4 28,-3 28,-2 28,-1 h 56 l 28,2 28,3 28,3 28,6 28,6 18,6 10,2 28,7 28,9 28,12 17,9 11,5 28,14 28,20 1,1 27,18 24,21 4,4 28,28 7,8 21,25 11,15 17,25 9,14 19,35 2,5 19,39 7,20 8,20 12,40 8,35 1,4 9,40 5,39 4,40 2,40 v 39 l -1,40 -3,39 -5,40 -8,40 -4,17 -4,22 -11,40 -13,33 -2,6 -17,40 -9,18 -11,22 -17,27 -8,12 -20,28 -10,12 -18,22 -18,17 -10,10 -28,24 -8,6 -20,16 -28,17 -14,7 -14,8 -28,14 -28,11 -21,6 -7,3 -28,10 -28,7 -28,6 -28,4 -28,4 -28,2 -28,1 -28,1 h -28 l -28,-1 -28,-2 -28,-2 -28,-4 -28,-5 -28,-6 -28,-8 -26,-10 h -2 l -28,-9 -28,-12 -28,-15 -5,-3 -23,-12 -28,-19 -10,-9 -18,-13 -28,-27 v 0 l -28,-28" /><path
         id="path94"
         style="fill:none;stroke:#000000;stroke-width:15;stroke-linecap:round;stroke-linejoin:round;stroke-miterlimit:10;stroke-dasharray:144, 36;stroke-dashoffset:0;stroke-opacity:1"
         d="m 2194,3341 2,-18 2,-22 5,-39 7,-40 10,-40 4,-13 7,-26 14,-40 7,-16 10,-23 18,-36 2,-4 23,-40 3,-4 25,-35 3,-5 28,-32 2,-3 26,-27 16,-12 12,-11 28,-20 17,-9 11,-7 28,-15 28,-12 18,-6 10,-4 28,-10 28,-8 28,-6 28,-5 28,-4 21,-2 7,-1 28,-4 28,-2 28,-1 28,-1 28,1 28,1 28,2 28,4 7,1 21,2 28,4 28,5 28,6 28,8 28,10 10,4 18,6 28,12 28,15 11,7 17,9 28,20 12,11 16,12 26,27 2,3 28,32 3,5 25,35 3,4 23,40 2,4 18,36 10,23 7,16 14,40 7,26 4,13 10,40 7,40 5,39 2,22 2,18 3,39 1,40 -1,40 -3,39 -2,18 -2,22 -5,39 -7,40 -10,40 -4,13 -7,26 -14,40 -7,16 -10,23 -18,36 -2,4 -23,40 -3,4 -25,35 -3,5 -28,32 -2,3 -26,27 -16,12 -12,11 -28,20 -17,9 -11,7 -28,15 -28,12 -18,6 -10,4 -28,10 -28,8 -28,6 -28,5 -28,4 -21,2 -7,1 -28,4 -28,2 -28,1 -28,1 -28,-1 -28,-1 -28,-2 -28,-4 -7,-1 -21,-2 -28,-4 -28,-5 -28,-6 -28,-8 -28,-10 -10,-4 -18,-6 -28,-12 -28,-15 -11,-7 -17,-9 -28,-20 -12,-11 -16,-12 -26,-27 -2,-3 -28,-32 -3,-5 -25,-35 -3,-4 -23,-40 -2,-4 -18,-36 -10,-23 -7,-16 -14,-40 -7,-26 -4,-13 -10,-40 -7,-40 -5,-39 -2,-22 -2,-18 -3,-39 v -80 l 3,-39" /><path
         id="path96"
         style="fill:none;stroke:#000000;stroke-width:15;stroke-linecap:round;stroke-linejoin:round;stroke-miterlimit:10;stroke-dasharray:144, 36;stroke-dashoffset:0;stroke-opacity:1"
         d="m 2223,3380 1,-11 2,-28 3,-40 6,-39 9,-40 8,-29 3,-11 12,-39 13,-30 4,-10 19,-39 5,-9 18,-31 10,-15 18,-25 10,-13 24,-26 4,-5 28,-27 10,-8 18,-15 28,-19 10,-5 18,-13 28,-14 28,-12 4,-1 24,-11 28,-10 28,-7 28,-6 28,-5 7,-1 21,-4 28,-3 28,-3 28,-2 h 56 l 28,2 28,3 28,3 21,4 7,1 28,5 28,6 28,7 28,10 24,11 4,1 28,12 28,14 19,13 9,5 28,19 18,15 10,8 28,27 4,5 24,26 10,13 18,25 10,15 18,31 5,9 19,39 4,10 13,30 12,39 3,11 8,29 9,40 6,39 4,40 1,28 1,11 1,40 -1,40 -1,11 -1,28 -4,40 -6,39 -9,40 -8,29 -3,11 -12,39 -13,30 -4,10 -19,39 -5,9 -18,31 -10,15 -18,25 -10,13 -24,26 -4,5 -28,27 -10,8 -18,15 -28,19 -9,5 -19,13 -28,14 -28,12 -4,1 -24,11 -28,10 -28,7 -28,6 -28,5 -7,1 -21,4 -28,3 -28,3 -28,2 h -56 l -28,-2 -28,-3 -28,-3 -21,-4 -7,-1 -28,-5 -28,-6 -28,-7 -28,-10 -24,-11 -4,-1 -28,-12 -28,-14 -18,-13 -10,-5 -28,-19 -18,-15 -10,-8 -28,-27 -4,-5 -24,-26 -10,-13 -18,-25 -10,-15 -18,-31 -5,-9 -19,-39 -4,-10 -13,-30 -12,-39 -3,-11 -8,-29 -9,-40 -6,-39 -3,-40 -2,-28 -1,-11 -1,-40 1,-40" /><path
         id="path98"
         style="fill:#ffffff;fill-opacity:1;fill-rule:nonzero;stroke:none"
         d="m 1838.16,3566.4 h 155.68 v 126 h -155.68 z" /><g
         transform="scale(10)"
         id="g100"><text
           id="text104"
           style="font-variant:normal;font-weight:normal;font-size:14px;font-family:Helvetica;-inkscape-font-specification:Helvetica;writing-mode:lr-tb;fill:#000000;fill-opacity:1;fill-rule:nonzero;stroke:none"
           transform="matrix(1,0,0,-1,183.816,360)"><tspan
             id="tspan102"
             y="0"
             x="0 7.7839999">45</tspan></text>
</g><path
         id="path106"
         style="fill:#ffffff;fill-opacity:1;fill-rule:nonzero;stroke:none"
         d="m 2146.16,2770.4 h 155.68 v 126 h -155.68 z" /><g
         transform="scale(10)"
         id="g108"><text
           id="text112"
           style="font-variant:normal;font-weight:normal;font-size:14px;font-family:Helvetica;-inkscape-font-specification:Helvetica;writing-mode:lr-tb;fill:#000000;fill-opacity:1;fill-rule:nonzero;stroke:none"
           transform="matrix(1,0,0,-1,214.616,280.4)"><tspan
             id="tspan110"
             y="0"
             x="0 7.7839999">55</tspan></text>
</g><path
         id="path114"
         style="fill:#ffffff;fill-opacity:1;fill-rule:nonzero;stroke:none"
         d="m 1800,1157.6 h 2088.61 v 144 H 1800 Z" /><g
         transform="scale(10)"
         id="g116"><text
           id="text120"
           style="font-variant:normal;font-weight:normal;font-size:16px;font-family:Times;-inkscape-font-specification:Times-Roman;writing-mode:lr-tb;fill:#000000;fill-opacity:1;fill-rule:nonzero;stroke:none"
           transform="matrix(1,0,0,-1,180,119.6)"><tspan
             id="tspan118"
             y="0"
             x="0 7.1040001 15.104 22.208 27.535999 35.535999 42.639999 46.639999 54.639999 61.743999 69.744003 75.968002 80.416 84.863998 92.863998 96.863998 101.312 109.312 113.312 121.312 128.416 135.52 139.52 150.192 158.192 163.52 171.52 183.968 188.416 196.416">charge density in bcc Chromium</tspan></text>
</g><path
         id="path122"
         style="fill:#ffffff;fill-opacity:1;fill-rule:nonzero;stroke:none"
         d="m 1800,957.602 h 2106.38 v 144 H 1800 Z" /><g
         transform="scale(10)"
         id="g124"><text
           id="text128"
           style="font-variant:normal;font-weight:normal;font-size:16px;font-family:Times;-inkscape-font-specification:Times-Roman;writing-mode:lr-tb;fill:#000000;fill-opacity:1;fill-rule:nonzero;stroke:none"
           transform="matrix(1,0,0,-1,180,99.6)"><tspan
             id="tspan126"
             y="0"
             x="0 7.1040001 15.104 23.104 27.552 35.551998 43.551998 48.880001 55.104 59.551998 63.551998 71.552002 79.552002 83.552002 91.552002 99.552002 103.552 111.552 119.552 123.552 131.552 139.552 143.552 148.88 156.88">contours: 45,55,65,75 (10</tspan></text>
<text
           id="text132"
           style="font-variant:normal;font-weight:normal;font-size:10.72000027px;font-family:Times;-inkscape-font-specification:Times-Roman;writing-mode:lr-tb;fill:#000000;fill-opacity:1;fill-rule:nonzero;stroke:none"
           transform="matrix(1,0,0,-1,344.88,104.88008)"><tspan
             id="tspan130"
             y="0"
             x="0 3.5697601">-3</tspan></text>
<text
           id="text136"
           style="font-variant:normal;font-weight:normal;font-size:16px;font-family:Times;-inkscape-font-specification:Times-Roman;writing-mode:lr-tb;fill:#000000;fill-opacity:1;fill-rule:nonzero;stroke:none"
           transform="matrix(1,0,0,-1,357.80969,99.6)"><tspan
             id="tspan134"
             y="0"
             x="0 7.1040001 11.104 19.104 23.104">a.u.)</tspan></text>
</g></g></g></svg>